<svg width="227" height="60" fill="none" xmlns="http://www.w3.org/2000/svg"><g clip-path="url(#a)"><path d="M19 0 0 14v35l11 10-1-37 9-7 9 7-1 37 11-10V14L19 0Z" fill="#252420"/><path d="m26 30-7 4-7-4v12l7 4 7-4V30Z" fill="#FF7401"/></g><path d="M63 36h-7l-1 5h-5l7-23h5l7 23h-5l-1-5Zm-6-4h5l-2-8-3 8Zm19 2-1 1v6h-4V17h4v13l1-1 3-5h5l-5 7 6 10h-6l-3-7Zm18 7v-2l-4 2-3-2-1-3 1-4 5-2h1v-3h-1c-1 0-2 0-2 2h-4c0-2 0-3 2-4l4-2 4 2 2 4v8l1 3v1h-5Zm-3-4h2v-4h-1l-1 1-1 2 1 1Zm10-5 1-7 4-2 3 2v-8h5v24h-4v-2l-4 2-4-2-1-6v-1Zm4 1v3l2 1 2-1v-8l-2-1-1 1-1 4v1Zm19 8-5-2c-2-1-2-3-2-6v-1l1-6c2-2 3-3 5-3l5 2 2 6v3h-9l1 2 2 1 4-1 2 2-3 2-3 1Zm-3-10h4v-3l-2-1-1 1-1 3Zm15-7 1 1 4-2 3 3c1-2 2-3 4-3 3 0 5 2 5 7v11h-5V28l-1-1-2 2v12h-5V28l-1-1-2 1v13h-5V24h4Z" fill="#252420"/><path d="M160 24v1l4-2c3 0 5 2 5 6v12h-5V28l-2-1-2 1v13h-4V24h4Zm20 17-1-2c0 1-1 2-3 2l-3-2-2-3 2-4 5-2h1v-3h-1c-1 0-2 0-2 2h-4l1-4 5-2 4 2 2 4v12h-4Zm-3-4h1l1-1v-3h-1l-2 1v2l1 1Zm17-1v-1l-3-1-3-3-1-3 1-3 4-2 5 2 2 4h-5c0-2 0-2-2-2h-1v2l3 1 4 3 1 3-2 4-5 1-3-1-2-2-1-3h4l1 2 2 1 1-2Zm12-11 3-2 4 2 1 5v11h-4V30l-1-2-1-1-2 1v13h-5V17h5v8Zm19 3h-1l-2 1v12h-5V24h4v2l3-3 2 1-1 4Z" fill="#FF7500"/><defs><clipPath id="a"><path fill="#fff" d="M0 0h38v59H0z"/></clipPath></defs></svg>